<svg width="159" height="92" viewBox="0 0 159 92" fill="none" xmlns="http://www.w3.org/2000/svg">
<path d="M6.74023 0.373535H23.0327C25.3194 0.373535 27.4346 0.802285 29.3782 1.65978C31.3791 2.51729 33.1227 3.6892 34.609 5.17554C36.0953 6.6047 37.2672 8.3197 38.1247 10.3205C38.9822 12.3214 39.411 14.4365 39.411 16.666V25.241C39.411 27.4705 38.9822 29.5857 38.1247 31.5865C37.2672 33.5874 36.0953 35.331 34.609 36.8173C33.1227 38.2465 31.3791 39.3898 29.3782 40.2473C27.4346 41.1048 25.3194 41.5335 23.0327 41.5335H19.6027V64H6.74023V0.373535ZM23.0327 31.5008C24.0046 31.5008 24.8335 31.1864 25.5195 30.5575C26.2055 29.8715 26.5485 29.0426 26.5485 28.0708V13.8363C26.5485 12.8645 26.2055 12.0641 25.5195 11.4353C24.8335 10.7493 24.0046 10.4063 23.0327 10.4063H19.6027V31.5008H23.0327Z" fill="white"/>
<path d="M35.1583 53.9673H48.0208V64H35.1583V53.9673Z" fill="white"/>
<path d="M68.0796 10.4063V64H55.2171V10.4063H46.7279V0.373535H76.5689V10.4063H68.0796Z" fill="white"/>
<path d="M73.5616 53.9673H86.4241V64H73.5616V53.9673Z" fill="white"/>
<path d="M90.7049 0.373535H107.683L113.257 33.473L118.745 0.373535H135.809V64H122.947V36.217L118.316 64H108.198L103.567 36.4743V64H90.7049V0.373535Z" fill="white"/>
<path d="M139.234 53.9673H152.097V64H139.234V53.9673Z" fill="white"/>
<path d="M0 91V75.9678H4.87061C6.71631 75.9678 7.91943 76.043 8.47998 76.1934C9.34131 76.4189 10.0625 76.9111 10.6436 77.6699C11.2246 78.4219 11.5151 79.396 11.5151 80.5923C11.5151 81.5151 11.3477 82.291 11.0127 82.9199C10.6777 83.5488 10.2505 84.0444 9.73096 84.4067C9.21826 84.7622 8.69531 84.998 8.16211 85.1143C7.4375 85.2578 6.38818 85.3296 5.01416 85.3296H3.03516V91H0ZM3.03516 78.5107V82.7764H4.69629C5.89258 82.7764 6.69238 82.6978 7.0957 82.5405C7.49902 82.3833 7.81348 82.1372 8.03906 81.8022C8.27148 81.4673 8.3877 81.0776 8.3877 80.6333C8.3877 80.0864 8.22705 79.6353 7.90576 79.2798C7.58447 78.9243 7.17773 78.7021 6.68555 78.6133C6.32324 78.5449 5.59521 78.5107 4.50146 78.5107H3.03516Z" fill="white"/>
<path d="M13.9863 78.6338V75.9678H16.8677V78.6338H13.9863ZM13.9863 91V80.1104H16.8677V91H13.9863Z" fill="white"/>
<path d="M26.1372 87.5342L29.0083 88.0161C28.6392 89.0688 28.0547 89.8721 27.2549 90.4258C26.4619 90.9727 25.4673 91.2461 24.271 91.2461C22.3774 91.2461 20.9761 90.6274 20.0669 89.3901C19.3491 88.3989 18.9902 87.1479 18.9902 85.6372C18.9902 83.8325 19.4619 82.4209 20.4053 81.4023C21.3486 80.377 22.5415 79.8643 23.9839 79.8643C25.604 79.8643 26.8823 80.4009 27.8188 81.4741C28.7554 82.5405 29.2031 84.1777 29.1621 86.3857H21.9434C21.9639 87.2402 22.1963 87.9067 22.6406 88.3853C23.085 88.8569 23.6387 89.0928 24.3018 89.0928C24.7529 89.0928 25.1323 88.9697 25.4399 88.7236C25.7476 88.4775 25.98 88.0811 26.1372 87.5342ZM26.3013 84.6221C26.2808 83.7881 26.0654 83.1558 25.6553 82.7251C25.2451 82.2876 24.7461 82.0688 24.1582 82.0688C23.5293 82.0688 23.0098 82.2979 22.5996 82.7559C22.1895 83.2139 21.9878 83.8359 21.9946 84.6221H26.3013Z" fill="white"/>
<path d="M41.4258 91H38.5444V85.4424C38.5444 84.2666 38.4829 83.5078 38.3599 83.166C38.2368 82.8174 38.0352 82.5474 37.7549 82.356C37.4814 82.1646 37.1499 82.0688 36.7603 82.0688C36.2612 82.0688 35.8135 82.2056 35.417 82.479C35.0205 82.7524 34.7471 83.1147 34.5967 83.5659C34.4531 84.0171 34.3813 84.8511 34.3813 86.0679V91H31.5V80.1104H34.1763V81.71C35.1265 80.4795 36.3228 79.8643 37.7651 79.8643C38.4009 79.8643 38.9819 79.9805 39.5083 80.2129C40.0347 80.4385 40.4312 80.729 40.6978 81.0845C40.9712 81.4399 41.1592 81.8433 41.2617 82.2944C41.3711 82.7456 41.4258 83.3916 41.4258 84.2324V91Z" fill="white"/>
<path d="M43.3433 87.8931L46.2349 87.4521C46.3579 88.0127 46.6074 88.4399 46.9834 88.7339C47.3594 89.021 47.8857 89.1646 48.5625 89.1646C49.3076 89.1646 49.8682 89.0278 50.2441 88.7544C50.4971 88.563 50.6235 88.3066 50.6235 87.9854C50.6235 87.7666 50.5552 87.5854 50.4185 87.4419C50.2749 87.3052 49.9536 87.1787 49.4546 87.0625C47.1304 86.5498 45.6572 86.0815 45.0352 85.6577C44.1738 85.0698 43.7432 84.2529 43.7432 83.207C43.7432 82.2637 44.1157 81.4707 44.8608 80.8281C45.606 80.1855 46.7612 79.8643 48.3267 79.8643C49.8169 79.8643 50.9243 80.1069 51.6489 80.5923C52.3735 81.0776 52.8726 81.7954 53.146 82.7456L50.4287 83.248C50.3125 82.8242 50.0903 82.4995 49.7622 82.2739C49.4409 82.0483 48.9795 81.9355 48.3779 81.9355C47.6191 81.9355 47.0757 82.0415 46.7476 82.2534C46.5288 82.4038 46.4194 82.5986 46.4194 82.8379C46.4194 83.043 46.5151 83.2173 46.7065 83.3608C46.9663 83.5522 47.8618 83.8223 49.3931 84.1709C50.9312 84.5195 52.0044 84.9468 52.6128 85.4526C53.2144 85.9653 53.5151 86.6797 53.5151 87.5957C53.5151 88.5938 53.0981 89.4517 52.2642 90.1694C51.4302 90.8872 50.1963 91.2461 48.5625 91.2461C47.0791 91.2461 45.9033 90.9453 45.0352 90.3438C44.1738 89.7422 43.6099 88.9253 43.3433 87.8931Z" fill="white"/>
<path d="M58.2012 83.4326L55.5864 82.9609C55.8804 81.9082 56.3862 81.1289 57.104 80.623C57.8218 80.1172 58.8882 79.8643 60.3032 79.8643C61.5884 79.8643 62.5454 80.0181 63.1743 80.3257C63.8032 80.6265 64.2441 81.0127 64.4971 81.4844C64.7568 81.9492 64.8867 82.8071 64.8867 84.0581L64.856 87.4214C64.856 88.3784 64.9004 89.0859 64.9893 89.5439C65.085 89.9951 65.2593 90.4805 65.5122 91H62.6616C62.5864 90.8086 62.4941 90.5249 62.3848 90.1489C62.3369 89.978 62.3027 89.8652 62.2822 89.8105C61.79 90.2891 61.2637 90.6479 60.7031 90.8872C60.1426 91.1265 59.5444 91.2461 58.9087 91.2461C57.7876 91.2461 56.9023 90.9419 56.2529 90.3335C55.6104 89.7251 55.2891 88.9561 55.2891 88.0264C55.2891 87.4111 55.436 86.8643 55.73 86.3857C56.0239 85.9004 56.4341 85.5312 56.9604 85.2783C57.4937 85.0186 58.2593 84.793 59.2573 84.6016C60.604 84.3486 61.5371 84.1128 62.0566 83.894V83.6069C62.0566 83.0532 61.9199 82.6602 61.6465 82.4277C61.373 82.1885 60.8569 82.0688 60.0981 82.0688C59.5854 82.0688 59.1855 82.1714 58.8984 82.3765C58.6113 82.5747 58.3789 82.9268 58.2012 83.4326ZM62.0566 85.7705C61.6875 85.8936 61.103 86.0405 60.3032 86.2114C59.5034 86.3823 58.9805 86.5498 58.7344 86.7139C58.3584 86.9805 58.1704 87.3188 58.1704 87.729C58.1704 88.1323 58.3208 88.481 58.6216 88.7749C58.9224 89.0688 59.3052 89.2158 59.77 89.2158C60.2896 89.2158 60.7852 89.0449 61.2568 88.7031C61.6055 88.4434 61.8345 88.1255 61.9438 87.7495C62.019 87.5034 62.0566 87.0352 62.0566 86.3447V85.7705Z" fill="white"/>
<path d="M78.5757 80.1104V82.4072H76.6069V86.7959C76.6069 87.6846 76.624 88.2041 76.6582 88.3545C76.6992 88.498 76.7847 88.6177 76.9146 88.7134C77.0513 88.8091 77.2153 88.8569 77.4067 88.8569C77.6733 88.8569 78.0596 88.7646 78.5654 88.5801L78.8115 90.8154C78.1416 91.1025 77.3828 91.2461 76.5352 91.2461C76.0156 91.2461 75.5474 91.1606 75.1304 90.9897C74.7134 90.812 74.4058 90.5864 74.2075 90.313C74.0161 90.0327 73.8828 89.6567 73.8076 89.1851C73.7461 88.8501 73.7153 88.1733 73.7153 87.1548V82.4072H72.3926V80.1104H73.7153V77.9468L76.6069 76.2651V80.1104H78.5757Z" fill="white"/>
<path d="M79.9087 85.4014C79.9087 84.4443 80.1445 83.5181 80.6162 82.6226C81.0879 81.7271 81.7544 81.0435 82.6157 80.5718C83.4839 80.1001 84.4512 79.8643 85.5176 79.8643C87.165 79.8643 88.5151 80.4009 89.5679 81.4741C90.6206 82.5405 91.147 83.8906 91.147 85.5244C91.147 87.1719 90.6138 88.5391 89.5474 89.626C88.4878 90.7061 87.1514 91.2461 85.5381 91.2461C84.54 91.2461 83.5864 91.0205 82.6772 90.5693C81.7749 90.1182 81.0879 89.4585 80.6162 88.5903C80.1445 87.7153 79.9087 86.6523 79.9087 85.4014ZM82.8618 85.5552C82.8618 86.6353 83.1182 87.4624 83.6309 88.0366C84.1436 88.6108 84.7759 88.8979 85.5278 88.8979C86.2798 88.8979 86.9087 88.6108 87.4146 88.0366C87.9272 87.4624 88.1836 86.6284 88.1836 85.5347C88.1836 84.4683 87.9272 83.6479 87.4146 83.0737C86.9087 82.4995 86.2798 82.2124 85.5278 82.2124C84.7759 82.2124 84.1436 82.4995 83.6309 83.0737C83.1182 83.6479 82.8618 84.4751 82.8618 85.5552Z" fill="white"/>
<path d="M103.4 91H100.724V89.4004C100.28 90.0225 99.7534 90.4873 99.145 90.7949C98.5435 91.0957 97.9351 91.2461 97.3198 91.2461C96.0688 91.2461 94.9956 90.7437 94.1001 89.7388C93.2114 88.7271 92.7671 87.3188 92.7671 85.5142C92.7671 83.6685 93.2012 82.2671 94.0693 81.3101C94.9375 80.3462 96.0347 79.8643 97.3608 79.8643C98.5776 79.8643 99.6304 80.3701 100.519 81.3818V75.9678H103.4V91ZM95.71 85.3193C95.71 86.4814 95.8706 87.3223 96.1919 87.8418C96.6567 88.5938 97.3062 88.9697 98.1401 88.9697C98.8032 88.9697 99.3672 88.6895 99.832 88.1289C100.297 87.5615 100.529 86.7173 100.529 85.5962C100.529 84.3452 100.304 83.4463 99.8525 82.8994C99.4014 82.3457 98.8237 82.0688 98.1196 82.0688C97.436 82.0688 96.8618 82.3423 96.397 82.8892C95.939 83.4292 95.71 84.2393 95.71 85.3193Z" fill="white"/>
<path d="M105.584 85.4014C105.584 84.4443 105.82 83.5181 106.292 82.6226C106.764 81.7271 107.43 81.0435 108.292 80.5718C109.16 80.1001 110.127 79.8643 111.193 79.8643C112.841 79.8643 114.191 80.4009 115.244 81.4741C116.296 82.5405 116.823 83.8906 116.823 85.5244C116.823 87.1719 116.29 88.5391 115.223 89.626C114.164 90.7061 112.827 91.2461 111.214 91.2461C110.216 91.2461 109.262 91.0205 108.353 90.5693C107.451 90.1182 106.764 89.4585 106.292 88.5903C105.82 87.7153 105.584 86.6523 105.584 85.4014ZM108.538 85.5552C108.538 86.6353 108.794 87.4624 109.307 88.0366C109.819 88.6108 110.452 88.8979 111.204 88.8979C111.956 88.8979 112.584 88.6108 113.09 88.0366C113.603 87.4624 113.859 86.6284 113.859 85.5347C113.859 84.4683 113.603 83.6479 113.09 83.0737C112.584 82.4995 111.956 82.2124 111.204 82.2124C110.452 82.2124 109.819 82.4995 109.307 83.0737C108.794 83.6479 108.538 84.4751 108.538 85.5552Z" fill="white"/>
<path d="M124.718 80.1104H127.374V81.5972C128.324 80.4419 129.456 79.8643 130.768 79.8643C131.465 79.8643 132.07 80.0078 132.583 80.2949C133.096 80.582 133.516 81.0161 133.844 81.5972C134.323 81.0161 134.839 80.582 135.393 80.2949C135.946 80.0078 136.538 79.8643 137.167 79.8643C137.966 79.8643 138.643 80.0283 139.197 80.3564C139.75 80.6777 140.164 81.1528 140.438 81.7817C140.636 82.2466 140.735 82.9985 140.735 84.0376V91H137.854V84.7759C137.854 83.6958 137.754 82.9985 137.556 82.6841C137.29 82.2739 136.879 82.0688 136.326 82.0688C135.922 82.0688 135.543 82.1919 135.188 82.438C134.832 82.6841 134.576 83.0464 134.418 83.5249C134.261 83.9966 134.183 84.7451 134.183 85.7705V91H131.301V85.0322C131.301 83.9727 131.25 83.2891 131.147 82.9814C131.045 82.6738 130.884 82.4448 130.666 82.2944C130.454 82.144 130.163 82.0688 129.794 82.0688C129.35 82.0688 128.95 82.1885 128.594 82.4277C128.239 82.667 127.982 83.0122 127.825 83.4634C127.675 83.9146 127.6 84.6631 127.6 85.709V91H124.718V80.1104Z" fill="white"/>
<path d="M145.77 83.4326L143.155 82.9609C143.449 81.9082 143.955 81.1289 144.672 80.623C145.39 80.1172 146.457 79.8643 147.872 79.8643C149.157 79.8643 150.114 80.0181 150.743 80.3257C151.372 80.6265 151.812 81.0127 152.065 81.4844C152.325 81.9492 152.455 82.8071 152.455 84.0581L152.424 87.4214C152.424 88.3784 152.469 89.0859 152.558 89.5439C152.653 89.9951 152.828 90.4805 153.081 91H150.23C150.155 90.8086 150.062 90.5249 149.953 90.1489C149.905 89.978 149.871 89.8652 149.851 89.8105C149.358 90.2891 148.832 90.6479 148.271 90.8872C147.711 91.1265 147.113 91.2461 146.477 91.2461C145.356 91.2461 144.471 90.9419 143.821 90.3335C143.179 89.7251 142.857 88.9561 142.857 88.0264C142.857 87.4111 143.004 86.8643 143.298 86.3857C143.592 85.9004 144.002 85.5312 144.529 85.2783C145.062 85.0186 145.828 84.793 146.826 84.6016C148.172 84.3486 149.105 84.1128 149.625 83.894V83.6069C149.625 83.0532 149.488 82.6602 149.215 82.4277C148.941 82.1885 148.425 82.0688 147.667 82.0688C147.154 82.0688 146.754 82.1714 146.467 82.3765C146.18 82.5747 145.947 82.9268 145.77 83.4326ZM149.625 85.7705C149.256 85.8936 148.671 86.0405 147.872 86.2114C147.072 86.3823 146.549 86.5498 146.303 86.7139C145.927 86.9805 145.739 87.3188 145.739 87.729C145.739 88.1323 145.889 88.481 146.19 88.7749C146.491 89.0688 146.874 89.2158 147.338 89.2158C147.858 89.2158 148.354 89.0449 148.825 88.7031C149.174 88.4434 149.403 88.1255 149.512 87.7495C149.587 87.5034 149.625 87.0352 149.625 86.3447V85.7705Z" fill="white"/>
<path d="M155.306 91V75.9678H158.187V91H155.306Z" fill="white"/>
</svg>
