<svg width="219" height="92" viewBox="0 0 219 92" fill="none" xmlns="http://www.w3.org/2000/svg">
<path d="M0.417874 34.8992C0.417874 33.0146 0.74942 31.4266 1.41251 30.1354C2.0756 28.8441 2.8085 27.7273 3.61119 26.785C4.44878 25.8078 5.19912 24.9353 5.86221 24.1675C6.5602 23.3997 6.92665 22.597 6.96155 21.7595V15.5822H14.814V21.7595C14.814 22.9809 14.6395 24.0628 14.2905 25.0051C13.9764 25.9474 13.575 26.8025 13.0864 27.5702C12.5978 28.338 12.0743 29.036 11.5159 29.6642C10.9576 30.2575 10.4341 30.8508 9.94546 31.4441C9.45687 32.0025 9.05552 32.5609 8.74143 33.1193C8.42733 33.6777 8.27028 34.271 8.27028 34.8992V37.6737C8.27028 38.267 8.46223 38.773 8.84612 39.1918C9.26492 39.5757 9.77096 39.7677 10.3643 39.7677C10.9575 39.7677 11.4461 39.5757 11.83 39.1918C12.2488 38.773 12.4582 38.267 12.4582 37.6737V34.8992H12.5106V32.5434H20.3106V34.8992C20.4153 36.3649 20.2408 37.7609 19.7871 39.0871C19.3335 40.4133 18.6529 41.5824 17.7455 42.5945C16.8381 43.6066 15.7562 44.4093 14.4999 45.0026C13.2435 45.5959 11.8649 45.8925 10.3643 45.8925C8.86357 45.8925 7.48504 45.5959 6.22866 45.0026C4.97227 44.4093 3.89038 43.6066 2.98299 42.5945C2.0756 41.5824 1.39506 40.4133 0.941368 39.0871C0.487673 37.7609 0.313176 36.3649 0.417874 34.8992ZM6.96155 7.04928H14.814V13.1742H6.96155V7.04928Z" fill="url(#paint0_linear_6_30)"/>
<path d="M23.0541 16.8386C23.0541 15.4077 23.3158 14.0815 23.8393 12.8601C24.3628 11.6037 25.0608 10.5043 25.9333 9.56205C26.8407 8.61976 27.9051 7.88687 29.1266 7.36338C30.3481 6.80498 31.6394 6.52579 33.0005 6.52579C34.3964 6.52579 35.6877 6.80498 36.8743 7.36338C38.0958 7.88687 39.1602 8.61976 40.0676 9.56205C40.975 10.5043 41.6905 11.6037 42.2139 12.8601C42.7374 14.0815 42.9992 15.4077 42.9992 16.8386V35.9461C42.9992 37.2723 42.7549 38.5113 42.2663 39.663C41.7777 40.8146 41.1321 41.8442 40.3294 42.7516L42.8945 45.3167L38.5495 49.6617L34.6756 45.7355C34.1521 45.8402 33.5938 45.8925 33.0005 45.8925C31.6394 45.8925 30.3481 45.6308 29.1266 45.1073C27.9051 44.5838 26.8407 43.8858 25.9333 43.0133C25.0608 42.1059 24.3628 41.0415 23.8393 39.82C23.3158 38.5985 23.0541 37.3072 23.0541 35.9461V16.8386ZM30.9065 37.6737C30.9065 38.267 31.0984 38.773 31.4823 39.1918C31.9011 39.5757 32.4072 39.7677 33.0005 39.7677C33.5938 39.7677 34.0998 39.5757 34.5186 39.1918C34.9374 38.773 35.1468 38.267 35.1468 37.6737V15.3205C35.1468 14.7272 34.9374 14.2211 34.5186 13.8024C34.0998 13.3836 33.5938 13.1742 33.0005 13.1742C32.4072 13.1742 31.9011 13.3836 31.4823 13.8024C31.0984 14.2211 30.9065 14.7272 30.9065 15.3205V37.6737Z" fill="url(#paint1_linear_6_30)"/>
<path d="M45.7111 36.3126V7.04928H53.5635V37.6737C53.5635 38.267 53.7555 38.773 54.1394 39.1918C54.5582 39.5757 55.0642 39.7677 55.6575 39.7677C56.2508 39.7677 56.7569 39.5757 57.1756 39.1918C57.5944 38.773 57.8038 38.267 57.8038 37.6737V7.04928H65.6562V36.3126C65.6562 37.7086 65.3945 39.0173 64.871 40.2388C64.3475 41.4603 63.6321 42.5422 62.7247 43.4845C61.8173 44.3918 60.7529 45.1073 59.5314 45.6308C58.3448 46.1543 57.0535 46.416 55.6575 46.416C54.2964 46.416 53.0051 46.1543 51.7837 45.6308C50.5622 45.1073 49.4977 44.3918 48.5903 43.4845C47.7179 42.5422 47.0199 41.4603 46.4964 40.2388C45.9729 39.0173 45.7111 37.7086 45.7111 36.3126Z" fill="url(#paint2_linear_6_30)"/>
<path d="M68.8185 7.04928H85.8844V13.1742H76.6709V21.7595H84.8374V27.8843H76.6709V39.7677H85.8844V45.8925H68.8185V7.04928ZM74.4722 0.819702H80.7541L77.6132 5.06H72.3782L74.4722 0.819702Z" fill="url(#paint3_linear_6_30)"/>
<path d="M93.3005 45.8951V7.05181H103.247C104.643 7.05181 105.934 7.31356 107.121 7.83705C108.342 8.36055 109.407 9.07599 110.314 9.98338C111.221 10.8559 111.937 11.9029 112.46 13.1243C112.984 14.3458 113.246 15.6371 113.246 16.9982V35.8963C113.246 37.2923 112.984 38.601 112.46 39.8225C111.937 41.0091 111.221 42.0561 110.314 42.9635C109.407 43.8709 108.342 44.5863 107.121 45.1098C105.934 45.6333 104.643 45.8951 103.247 45.8951H93.3005ZM103.247 39.7702C103.84 39.7702 104.346 39.5608 104.765 39.142C105.184 38.7232 105.393 38.2172 105.393 37.6239V15.2707C105.393 14.6774 105.184 14.1888 104.765 13.8049C104.346 13.3861 103.84 13.1767 103.247 13.1767H101.153V39.7702H103.247Z" fill="url(#paint4_linear_6_30)"/>
<path d="M115.948 7.05181H133.014V13.1767H123.8V21.762H131.967V27.8869H123.8V39.7702H133.014V45.8951H115.948V7.05181Z" fill="url(#paint5_linear_6_30)"/>
<path d="M142.041 33.3836V37.6762C142.041 38.2695 142.233 38.7755 142.617 39.1943C143.036 39.5782 143.542 39.7702 144.135 39.7702H144.659C145.252 39.7702 145.758 39.5608 146.177 39.142C146.595 38.7232 146.805 38.2172 146.805 37.6239V34.9017C146.805 33.8896 146.456 33.0171 145.758 32.2842C145.06 31.5513 143.908 30.6439 142.303 29.5621C141.221 28.7943 140.191 28.0265 139.214 27.2587C138.272 26.456 137.452 25.5835 136.754 24.6412C136.056 23.6989 135.497 22.6694 135.079 21.5526C134.66 20.4009 134.45 19.0922 134.45 17.6264V16.6318C134.45 15.2358 134.712 13.927 135.236 12.7055C135.759 11.4841 136.457 10.4196 137.33 9.51223C138.237 8.56995 139.301 7.83705 140.523 7.31356C141.744 6.79007 143.036 6.52832 144.397 6.52832C145.793 6.52832 147.084 6.80752 148.271 7.36591C149.492 7.8894 150.557 8.6223 151.464 9.56459C152.371 10.5069 153.087 11.6237 153.61 12.9149C154.134 14.1713 154.396 15.515 154.396 16.9458V18.5163H146.543V15.2707C146.543 14.6774 146.334 14.1888 145.915 13.8049C145.496 13.3861 144.99 13.1767 144.397 13.1767C143.804 13.1767 143.297 13.3861 142.879 13.8049C142.495 14.2237 142.303 14.7297 142.303 15.323V18.0452C142.303 19.0573 142.634 19.9298 143.297 20.6627C143.995 21.3606 145.147 22.268 146.753 23.3848C147.869 24.1526 148.899 24.9379 149.841 25.7405C150.818 26.5083 151.656 27.3634 152.354 28.3057C153.052 29.248 153.61 30.2949 154.029 31.4466C154.448 32.5634 154.657 33.8547 154.657 35.3205V36.3151C154.657 37.7111 154.396 39.0198 153.872 40.2413C153.349 41.4628 152.633 42.5447 151.726 43.487C150.818 44.3944 149.754 45.1098 148.532 45.6333C147.346 46.1568 146.055 46.4186 144.659 46.4186H144.135C142.774 46.4186 141.483 46.1568 140.261 45.6333C139.04 45.0749 137.975 44.3246 137.068 43.3823C136.195 42.44 135.497 41.3407 134.974 40.0843C134.45 38.8279 134.189 37.4843 134.189 36.0534V33.3836H142.041Z" fill="url(#paint6_linear_6_30)"/>
<path d="M157.357 7.05181H174.423V13.1767H165.209V21.762H173.376V27.8869H165.209V39.7702H174.423V45.8951H157.357V7.05181Z" fill="url(#paint7_linear_6_30)"/>
<path d="M175.231 45.8951L178.896 7.05181H192.507L196.224 45.8951H188.947L188.005 35.9487H183.503L182.56 45.8951H175.231ZM187.429 29.8238L185.963 14.9042H185.492L184.078 29.8238H187.429Z" fill="url(#paint8_linear_6_30)"/>
<path d="M205.995 33.3836V37.6762C205.995 38.2695 206.187 38.7755 206.571 39.1943C206.99 39.5782 207.496 39.7702 208.089 39.7702H208.613C209.206 39.7702 209.712 39.5608 210.131 39.142C210.55 38.7232 210.759 38.2172 210.759 37.6239V34.9017C210.759 33.8896 210.41 33.0171 209.712 32.2842C209.014 31.5513 207.862 30.6439 206.257 29.5621C205.175 28.7943 204.146 28.0265 203.168 27.2587C202.226 26.456 201.406 25.5835 200.708 24.6412C200.01 23.6989 199.452 22.6694 199.033 21.5526C198.614 20.4009 198.405 19.0922 198.405 17.6264V16.6318C198.405 15.2358 198.666 13.927 199.19 12.7055C199.713 11.4841 200.411 10.4196 201.284 9.51223C202.191 8.56995 203.256 7.83705 204.477 7.31356C205.699 6.79007 206.99 6.52832 208.351 6.52832C209.747 6.52832 211.038 6.80752 212.225 7.36591C213.446 7.8894 214.511 8.6223 215.418 9.56459C216.326 10.5069 217.041 11.6237 217.564 12.9149C218.088 14.1713 218.35 15.515 218.35 16.9458V18.5163H210.497V15.2707C210.497 14.6774 210.288 14.1888 209.869 13.8049C209.45 13.3861 208.944 13.1767 208.351 13.1767C207.758 13.1767 207.252 13.3861 206.833 13.8049C206.449 14.2237 206.257 14.7297 206.257 15.323V18.0452C206.257 19.0573 206.589 19.9298 207.252 20.6627C207.95 21.3606 209.101 22.268 210.707 23.3848C211.823 24.1526 212.853 24.9379 213.795 25.7405C214.773 26.5083 215.61 27.3634 216.308 28.3057C217.006 29.248 217.564 30.2949 217.983 31.4466C218.402 32.5634 218.611 33.8547 218.611 35.3205V36.3151C218.611 37.7111 218.35 39.0198 217.826 40.2413C217.303 41.4628 216.587 42.5447 215.68 43.487C214.773 44.3944 213.708 45.1098 212.487 45.6333C211.3 46.1568 210.009 46.4186 208.613 46.4186H208.089C206.728 46.4186 205.437 46.1568 204.215 45.6333C202.994 45.0749 201.929 44.3246 201.022 43.3823C200.15 42.44 199.452 41.3407 198.928 40.0843C198.405 38.8279 198.143 37.4843 198.143 36.0534V33.3836H205.995Z" fill="url(#paint9_linear_6_30)"/>
<path d="M41.8342 81.5302V77.5517H49.6866V83.2577C49.6866 83.851 49.8786 84.3571 50.2625 84.7759C50.6813 85.1598 51.1873 85.3517 51.7806 85.3517C52.3739 85.3517 52.88 85.1598 53.2987 84.7759C53.7175 84.3571 53.9269 83.851 53.9269 83.2577V52.6334H61.7793V81.5302C61.7793 82.8913 61.5176 84.2175 60.9941 85.5088C60.4706 86.7652 59.7552 87.8819 58.8478 88.8591C57.9404 89.8014 56.876 90.5692 55.6545 91.1625C54.4679 91.7209 53.1766 92.0001 51.7806 92.0001C50.4195 92.0001 49.1282 91.7209 47.9068 91.1625C46.6853 90.5692 45.6208 89.8014 44.7134 88.8591C43.841 87.8819 43.143 86.7652 42.6195 85.5088C42.096 84.2175 41.8342 82.8913 41.8342 81.5302Z" fill="url(#paint10_linear_6_30)"/>
<path d="M64.9089 81.8967V52.6334H72.7613V83.2577C72.7613 83.851 72.9532 84.3571 73.3371 84.7759C73.7559 85.1598 74.262 85.3517 74.8552 85.3517C75.4485 85.3517 75.9546 85.1598 76.3734 84.7759C76.7922 84.3571 77.0016 83.851 77.0016 83.2577V52.6334H84.854V81.8967C84.854 83.2927 84.5922 84.6014 84.0687 85.8229C83.5452 87.0444 82.8298 88.1262 81.9224 89.0685C81.015 89.9759 79.9506 90.6914 78.7291 91.2149C77.5425 91.7384 76.2512 92.0001 74.8552 92.0001C73.4942 92.0001 72.2029 91.7384 70.9814 91.2149C69.7599 90.6914 68.6955 89.9759 67.7881 89.0685C66.9156 88.1262 66.2176 87.0444 65.6941 85.8229C65.1706 84.6014 64.9089 83.2927 64.9089 81.8967Z" fill="url(#paint11_linear_6_30)"/>
<path d="M87.5974 81.8443V62.3703C87.5974 60.9395 87.8592 59.6133 88.3827 58.3918C88.9061 57.1354 89.6041 56.0535 90.4766 55.1461C91.384 54.2038 92.4485 53.4709 93.6699 52.9475C94.8914 52.3891 96.1827 52.1099 97.5438 52.1099C98.9398 52.1099 100.231 52.3891 101.418 52.9475C102.639 53.4709 103.704 54.2038 104.611 55.1461C105.518 56.0884 106.234 57.1878 106.757 58.4441C107.281 59.7005 107.543 61.0442 107.543 62.475V64.8831L99.6901 65.4066V60.8522C99.6901 60.2589 99.4807 59.7703 99.0619 59.3864C98.6431 58.9676 98.1371 58.7582 97.5438 58.7582C96.9505 58.7582 96.4445 58.9676 96.0257 59.3864C95.6418 59.7703 95.4498 60.2589 95.4498 60.8522V83.2577C95.4498 83.851 95.6418 84.3571 96.0257 84.7759C96.4445 85.1598 96.9505 85.3517 97.5438 85.3517C98.1371 85.3517 98.6431 85.1598 99.0619 84.7759C99.4807 84.3571 99.6901 83.851 99.6901 83.2577V75.0389H98.0149V70.0134H107.543V91.4766H103.878L103.512 90.0108C102.674 90.639 101.749 91.1276 100.737 91.4766C99.725 91.8256 98.6606 92.0001 97.5438 92.0001C96.1827 92.0001 94.8914 91.7384 93.6699 91.2149C92.4485 90.6565 91.384 89.9236 90.4766 89.0162C89.6041 88.1088 88.9061 87.0444 88.3827 85.8229C87.8592 84.5665 87.5974 83.2403 87.5974 81.8443Z" fill="url(#paint12_linear_6_30)"/>
<path d="M109.469 91.4766L113.134 52.6334H126.745L130.461 91.4766H123.185L122.242 81.5302H117.74L116.798 91.4766H109.469ZM121.667 75.4053L120.201 60.4858H119.73L118.316 75.4053H121.667Z" fill="url(#paint13_linear_6_30)"/>
<path d="M132.799 52.6334H142.746C144.142 52.6334 145.433 52.8951 146.62 53.4186C147.841 53.9421 148.906 54.6575 149.813 55.5649C150.72 56.4374 151.436 57.4844 151.959 58.7059C152.483 59.9274 152.745 61.2187 152.745 62.5797V67.8147C152.745 69.2805 152.448 70.659 151.855 71.9503C151.261 73.2067 150.459 74.2886 149.447 75.1959L154.053 91.4766H145.887L141.961 77.7611H140.652V91.4766H132.799V52.6334ZM140.652 58.7582V71.6362H142.746C143.339 71.6362 143.845 71.4442 144.264 71.0603C144.683 70.6415 144.892 70.1355 144.892 69.5422V60.8522C144.892 60.2589 144.683 59.7703 144.264 59.3864C143.845 58.9676 143.339 58.7582 142.746 58.7582H140.652Z" fill="url(#paint14_linear_6_30)"/>
<path d="M165.887 52.6334C167.388 52.6334 168.766 52.93 170.023 53.5233C171.279 54.1166 172.361 54.9193 173.268 55.9314C174.176 56.9435 174.856 58.1126 175.31 59.4388C175.764 60.765 175.938 62.1609 175.834 63.6267C175.834 65.5113 175.502 67.0992 174.839 68.3905C174.176 69.6818 173.425 70.816 172.588 71.7932C171.785 72.7355 171.035 73.5906 170.337 74.3584C169.674 75.1261 169.325 75.9288 169.29 76.7664V82.9437H161.437V76.7664C161.437 75.5449 161.594 74.4631 161.909 73.5208C162.258 72.5785 162.676 71.7234 163.165 70.9556C163.654 70.1879 164.177 69.5073 164.735 68.914C165.294 68.2858 165.817 67.6925 166.306 67.1341C166.795 66.5408 167.196 65.965 167.51 65.4066C167.824 64.8482 167.981 64.2549 167.981 63.6267V60.8522C167.981 60.2589 167.772 59.7703 167.353 59.3864C166.969 58.9676 166.48 58.7582 165.887 58.7582C165.294 58.7582 164.788 58.9676 164.369 59.3864C163.985 59.7703 163.793 60.2589 163.793 60.8522V63.6267H163.741V65.9825H155.941V63.6267C155.836 62.1609 156.011 60.765 156.464 59.4388C156.918 58.1126 157.598 56.9435 158.506 55.9314C159.413 54.9193 160.495 54.1166 161.752 53.5233C163.008 52.93 164.386 52.6334 165.887 52.6334ZM161.437 85.3517H169.29V91.4766H161.437V85.3517Z" fill="url(#paint15_linear_6_30)"/>
<defs>
<linearGradient id="paint0_linear_6_30" x1="39.5565" y1="1.97137" x2="46.1953" y2="52.2407" gradientUnits="userSpaceOnUse">
<stop stop-color="#1ACDF8"/>
<stop offset="1" stop-color="#FACD2D"/>
</linearGradient>
<linearGradient id="paint1_linear_6_30" x1="39.5565" y1="1.97137" x2="46.1953" y2="52.2407" gradientUnits="userSpaceOnUse">
<stop stop-color="#1ACDF8"/>
<stop offset="1" stop-color="#FACD2D"/>
</linearGradient>
<linearGradient id="paint2_linear_6_30" x1="39.5565" y1="1.97137" x2="46.1953" y2="52.2407" gradientUnits="userSpaceOnUse">
<stop stop-color="#1ACDF8"/>
<stop offset="1" stop-color="#FACD2D"/>
</linearGradient>
<linearGradient id="paint3_linear_6_30" x1="39.5565" y1="1.97137" x2="46.1953" y2="52.2407" gradientUnits="userSpaceOnUse">
<stop stop-color="#1ACDF8"/>
<stop offset="1" stop-color="#FACD2D"/>
</linearGradient>
<linearGradient id="paint4_linear_6_30" x1="150.709" y1="7.46891" x2="153.766" y2="49.0159" gradientUnits="userSpaceOnUse">
<stop stop-color="#1ACDF8"/>
<stop offset="1" stop-color="#FACD2D"/>
</linearGradient>
<linearGradient id="paint5_linear_6_30" x1="150.709" y1="7.46891" x2="153.766" y2="49.0159" gradientUnits="userSpaceOnUse">
<stop stop-color="#1ACDF8"/>
<stop offset="1" stop-color="#FACD2D"/>
</linearGradient>
<linearGradient id="paint6_linear_6_30" x1="150.709" y1="7.46891" x2="153.766" y2="49.0159" gradientUnits="userSpaceOnUse">
<stop stop-color="#1ACDF8"/>
<stop offset="1" stop-color="#FACD2D"/>
</linearGradient>
<linearGradient id="paint7_linear_6_30" x1="150.709" y1="7.46891" x2="153.766" y2="49.0159" gradientUnits="userSpaceOnUse">
<stop stop-color="#1ACDF8"/>
<stop offset="1" stop-color="#FACD2D"/>
</linearGradient>
<linearGradient id="paint8_linear_6_30" x1="150.709" y1="7.46891" x2="153.766" y2="49.0159" gradientUnits="userSpaceOnUse">
<stop stop-color="#1ACDF8"/>
<stop offset="1" stop-color="#FACD2D"/>
</linearGradient>
<linearGradient id="paint9_linear_6_30" x1="150.709" y1="7.46891" x2="153.766" y2="49.0159" gradientUnits="userSpaceOnUse">
<stop stop-color="#1ACDF8"/>
<stop offset="1" stop-color="#FACD2D"/>
</linearGradient>
<linearGradient id="paint10_linear_6_30" x1="103.237" y1="53.0505" x2="106.097" y2="94.6257" gradientUnits="userSpaceOnUse">
<stop stop-color="#1ACDF8"/>
<stop offset="1" stop-color="#FACD2D"/>
</linearGradient>
<linearGradient id="paint11_linear_6_30" x1="103.237" y1="53.0505" x2="106.097" y2="94.6257" gradientUnits="userSpaceOnUse">
<stop stop-color="#1ACDF8"/>
<stop offset="1" stop-color="#FACD2D"/>
</linearGradient>
<linearGradient id="paint12_linear_6_30" x1="103.237" y1="53.0505" x2="106.097" y2="94.6257" gradientUnits="userSpaceOnUse">
<stop stop-color="#1ACDF8"/>
<stop offset="1" stop-color="#FACD2D"/>
</linearGradient>
<linearGradient id="paint13_linear_6_30" x1="103.237" y1="53.0505" x2="106.097" y2="94.6257" gradientUnits="userSpaceOnUse">
<stop stop-color="#1ACDF8"/>
<stop offset="1" stop-color="#FACD2D"/>
</linearGradient>
<linearGradient id="paint14_linear_6_30" x1="103.237" y1="53.0505" x2="106.097" y2="94.6257" gradientUnits="userSpaceOnUse">
<stop stop-color="#1ACDF8"/>
<stop offset="1" stop-color="#FACD2D"/>
</linearGradient>
<linearGradient id="paint15_linear_6_30" x1="103.237" y1="53.0505" x2="106.097" y2="94.6257" gradientUnits="userSpaceOnUse">
<stop stop-color="#1ACDF8"/>
<stop offset="1" stop-color="#FACD2D"/>
</linearGradient>
</defs>
</svg>
