<svg width="17" height="16" viewBox="0 0 17 16" fill="none" xmlns="http://www.w3.org/2000/svg">
<path d="M13.6655 2.35179C12.4514 1.13403 10.8773 0.33985 9.17644 0.0869821C7.47557 -0.165886 5.7385 0.136012 4.22269 0.947928C2.70688 1.75984 1.49302 3.03856 0.761029 4.59454C0.029041 6.15053 -0.182112 7.90095 0.158867 9.58637C0.499847 11.2718 1.37481 12.8025 2.65407 13.9516C3.93332 15.1006 5.54878 15.807 7.26098 15.9658C8.97319 16.1247 10.691 15.7276 12.1598 14.8334C13.6286 13.9393 14.7703 12.5957 15.4155 11.0018H13.1955C12.5774 12.0935 11.6327 12.964 10.4941 13.4909C9.35561 14.0178 8.08057 14.1745 6.84832 13.9391C5.61607 13.7037 4.48861 13.088 3.6245 12.1785C2.76038 11.269 2.20307 10.1115 2.03096 8.86887C1.85884 7.6262 2.08058 6.36084 2.66497 5.25074C3.24937 4.14063 4.16703 3.24163 5.28891 2.68016C6.41078 2.11869 7.68043 1.923 8.91931 2.1206C10.1582 2.31821 11.3039 2.89917 12.1955 3.78179L9.01548 7.00179H16.0155V0.00179178L13.6655 2.35179Z" fill="white"/>
</svg>
