<svg width="31" height="36" viewBox="0 0 31 36" fill="none" xmlns="http://www.w3.org/2000/svg">
<path d="M15.1857 6.19397C7.17398 6.19397 0.655273 12.7127 0.655273 20.7244C0.655273 28.7361 7.17398 35.2548 15.1857 35.2548C23.1974 35.2548 29.7161 28.7361 29.7161 20.7244C29.7161 12.7127 23.1974 6.19397 15.1857 6.19397ZM15.1857 31.6222C9.17554 31.6222 4.28788 26.7345 4.28788 20.7244C4.28788 14.7142 9.17554 9.82657 15.1857 9.82657C21.1958 9.82657 26.0835 14.7142 26.0835 20.7244C26.0835 26.7345 21.1958 31.6222 15.1857 31.6222Z" fill="white"/>
<path d="M13.3694 13.4592H17.002V22.5407H13.3694V13.4592ZM9.73682 0.745117H20.6346V4.37772H9.73682V0.745117Z" fill="white"/>
<path d="M28.4317 11.1108L24.7991 7.47816L27.3673 4.90991L30.9999 8.54251L28.4317 11.1108Z" fill="white"/>
</svg>
